<?xml version="1.0" standalone="no"?><svg xmlns="http://www.w3.org/2000/svg" viewBox="0 0 1440 320"><path fill="#0099ff" fill-opacity="1" d="M0,192L26.7,192C53.3,192,107,192,160,213.3C213.3,235,267,277,320,293.3C373.3,309,427,299,480,266.7C533.3,235,587,181,640,138.7C693.3,96,747,64,800,58.7C853.3,53,907,75,960,85.3C1013.3,96,1067,96,1120,128C1173.3,160,1227,224,1280,218.7C1333.3,213,1387,139,1413,101.3L1440,64L1440,0L1413.3,0C1386.7,0,1333,0,1280,0C1226.7,0,1173,0,1120,0C1066.7,0,1013,0,960,0C906.7,0,853,0,800,0C746.7,0,693,0,640,0C586.7,0,533,0,480,0C426.7,0,373,0,320,0C266.7,0,213,0,160,0C106.7,0,53,0,27,0L0,0Z"></path></svg>